<svg width="447" height="442" viewBox="0 0 447 442" fill="none" xmlns="http://www.w3.org/2000/svg">
<g filter="url(#filter0_d)">
<mask id="mask0" mask-type="alpha" maskUnits="userSpaceOnUse" x="6" y="0" width="413" height="413">
<circle cx="212.5" cy="206.5" r="206.5" fill="#423C52"/>
</mask>
<g mask="url(#mask0)">
<path d="M479.604 140.006C484.446 140.006 487.091 134.316 483.938 130.646C481.253 127.522 477.129 125.577 472.605 124.591C464.701 122.868 455.084 128.309 452.757 129.677C452.155 118.914 442.767 110.368 431.272 110.368C430.805 110.368 430.339 110.382 429.879 110.412C426.937 94.9951 412.255 83.2729 394.586 83.2729C374.798 83.2729 358.756 97.9716 358.756 116.102C358.755 117.51 358.853 118.916 359.048 120.31C358.176 120.204 357.299 120.15 356.42 120.149C348.564 120.149 339.542 125.008 338.478 132.814C338.478 132.814 296.018 121.308 295.773 140.244L479.604 140.006Z" fill="#DCB641"/>
<path d="M-69.0663 151.256H70.9212C70.6511 149.913 67.8551 135.537 33.3893 148.629C33.3893 148.629 35.0917 141.48 24.7517 144.653C14.4117 147.827 18.0939 133.639 9.01096 131.367C3.59566 130.013 0.519348 132.243 -1.64735 134.723C-2.69128 120.544 -15.1819 109.348 -30.4379 109.348C-46.3772 109.348 -59.2972 121.569 -59.2972 136.647C-59.2974 137.573 -59.2486 138.499 -59.1512 139.42C-60.7879 137.395 -64.3912 135.582 -69.3145 135.699C-69.4269 135.699 -69.5394 135.706 -69.6503 135.714C-79.6224 136.294 -79.0618 151.256 -69.0663 151.256Z" fill="#DCB641"/>
<path d="M204.479 256.577H214.606C219.997 256.575 225.216 258.467 229.353 261.921C233.49 265.376 236.28 270.173 237.237 275.474L258.58 383.244C258.773 384.308 259.333 385.271 260.164 385.965C260.995 386.658 262.042 387.038 263.125 387.038V387.038C264.113 387.038 265.074 386.721 265.869 386.134C266.663 385.548 267.248 384.722 267.538 383.778L278.96 345.349" stroke="#423C52" stroke-width="5" stroke-miterlimit="10" stroke-linecap="round"/>
<path d="M198.364 299.195H262.65C263.765 299.195 264.871 299.398 265.913 299.794L341.164 328.392H279.147C276.019 328.392 272.918 327.817 269.998 326.697L198.364 299.195Z" fill="#423C52"/>
<path d="M307.501 309.653C308.132 307.955 312.341 306.537 314.557 307.11L316.664 307.977C314.474 308.184 312.043 308.967 311.656 311.373L307.501 309.653Z" fill="#423C52"/>
<path d="M322.645 336.365C326.627 327.51 325.283 318.279 319.644 315.746C314.005 313.214 306.206 318.339 302.224 327.193C298.242 336.048 299.585 345.279 305.224 347.812C310.863 350.344 318.662 345.219 322.645 336.365Z" fill="#3F3D56"/>
<path d="M301.372 326.813C305.354 317.958 304.011 308.727 298.372 306.194C292.733 303.662 284.933 308.787 280.951 317.641C276.969 326.496 278.312 335.727 283.951 338.26C289.59 340.792 297.39 335.667 301.372 326.813Z" fill="#3F3D56"/>
<path d="M311.759 331.38C316.038 321.866 315.04 312.148 309.532 309.674C304.023 307.2 296.088 312.907 291.81 322.421C287.531 331.934 288.529 341.653 294.037 344.127C299.546 346.601 307.481 340.894 311.759 331.38Z" fill="#3F3D56"/>
<path d="M288.827 335.493C288.491 331.62 289.322 326.929 291.41 322.287C294.019 316.483 297.98 312.097 301.937 310.119" stroke="#DCB641" stroke-width="5" stroke-miterlimit="10" stroke-linecap="round"/>
<path d="M314.238 315.698C315.356 319.957 314.572 325.766 311.976 331.543C309.398 337.279 305.489 341.633 301.585 343.642" stroke="#DCB641" stroke-width="5" stroke-miterlimit="10" stroke-linecap="round"/>
<path d="M225.1 333.679C227.579 332.818 228.59 329.245 227.357 325.697C226.124 322.15 223.114 319.972 220.634 320.833C218.155 321.693 217.144 325.267 218.377 328.815C219.61 332.362 222.62 334.54 225.1 333.679Z" fill="#DCB641"/>
<path d="M231.291 341.725C233.759 340.875 234.994 337.967 234.05 335.229C233.106 332.49 230.34 330.959 227.872 331.809C225.404 332.659 224.169 335.567 225.113 338.305C226.057 341.044 228.823 342.575 231.291 341.725Z" fill="#DCB641"/>
<path d="M233.128 312.269C233.192 309.032 229.732 306.337 225.398 306.251C221.065 306.165 217.5 308.719 217.436 311.957C217.371 315.194 220.832 317.888 225.165 317.974C229.498 318.06 233.063 315.506 233.128 312.269Z" fill="#DCB641"/>
<path d="M253.252 338.704C253.317 335.467 249.856 332.773 245.523 332.687C241.19 332.601 237.625 335.155 237.56 338.392C237.496 341.629 240.956 344.324 245.29 344.41C249.623 344.496 253.188 341.941 253.252 338.704Z" fill="#DCB641"/>
<path d="M240.27 302.273C241.422 299.177 240.129 295.839 237.381 294.818C234.634 293.797 231.473 295.479 230.321 298.575C229.169 301.671 230.462 305.008 233.209 306.029C235.956 307.051 239.117 305.368 240.27 302.273Z" fill="#DCB641"/>
<path d="M265.67 305.287C266.8 302.253 265.014 298.788 261.681 297.55C258.349 296.312 254.732 297.768 253.603 300.803C252.474 303.837 254.259 307.301 257.592 308.54C260.924 309.778 264.541 308.322 265.67 305.287Z" fill="#DCB641"/>
<path d="M246.743 315.657C250.616 312.981 252.293 308.699 250.49 306.094C248.687 303.488 244.086 303.546 240.214 306.223C236.341 308.899 234.664 313.181 236.467 315.786C238.27 318.392 242.871 318.334 246.743 315.657Z" fill="#DCB641"/>
<path d="M249.709 301.832C252.706 300.8 253.892 296.357 252.358 291.909C250.825 287.46 247.152 284.69 244.155 285.722C241.158 286.754 239.972 291.197 241.506 295.645C243.039 300.094 246.712 302.864 249.709 301.832Z" fill="#DCB641"/>
<path d="M266.864 329.354C269.958 328.665 271.635 324.383 270.61 319.791C269.586 315.198 266.247 312.034 263.153 312.724C260.059 313.413 258.382 317.695 259.407 322.287C260.431 326.88 263.77 330.044 266.864 329.354Z" fill="#DCB641"/>
<path d="M232.875 330.618C236.045 330.618 238.615 328.051 238.615 324.883C238.615 321.715 236.045 319.147 232.875 319.147C229.705 319.147 227.136 321.715 227.136 324.883C227.136 328.051 229.705 330.618 232.875 330.618Z" fill="#DCB641"/>
<path d="M255.091 317.016C257.155 317.016 258.828 315.344 258.828 313.282C258.828 311.22 257.155 309.548 255.091 309.548C253.028 309.548 251.355 311.22 251.355 313.282C251.355 315.344 253.028 317.016 255.091 317.016Z" fill="#DCB641"/>
<path d="M223.886 304.276C225.694 304.276 227.161 302.811 227.161 301.004C227.161 299.196 225.694 297.731 223.886 297.731C222.077 297.731 220.611 299.196 220.611 301.004C220.611 302.811 222.077 304.276 223.886 304.276Z" fill="#DCB641"/>
<path d="M234.862 293.181C237.497 292.071 239.084 289.867 238.406 288.259C237.728 286.65 235.041 286.246 232.406 287.356C229.77 288.466 228.183 290.669 228.861 292.278C229.54 293.886 232.226 294.29 234.862 293.181Z" fill="#DCB641"/>
<path d="M249.749 330.739C253.426 330.077 255.973 327.128 255.436 324.151C254.9 321.175 251.484 319.299 247.806 319.96C244.129 320.622 241.582 323.572 242.119 326.548C242.655 329.524 246.071 331.401 249.749 330.739Z" fill="#DCB641"/>
<path d="M260.009 340.064C262.338 339.645 263.771 336.785 263.211 333.676C262.65 330.567 260.309 328.387 257.98 328.806C255.652 329.225 254.219 332.085 254.779 335.194C255.339 338.303 257.681 340.483 260.009 340.064Z" fill="#DCB641"/>
<path d="M273.713 321.062C273.292 342.234 259.625 347.456 242.906 347.125C226.187 346.794 212.734 341.03 213.154 319.859C213.575 298.688 230.046 281.845 244.192 282.123C257.169 282.385 274.133 299.89 273.713 321.062Z" stroke="#DCB641" stroke-width="4" stroke-miterlimit="10" stroke-linecap="round"/>
<path d="M246.468 282.463L245.183 347.024" stroke="#DCB641" stroke-width="4" stroke-miterlimit="10" stroke-linecap="round"/>
<path d="M251.086 283.722L249.835 346.678" stroke="#DCB641" stroke-width="4" stroke-miterlimit="10" stroke-linecap="round"/>
<path d="M255.68 286.295L254.491 346.041" stroke="#DCB641" stroke-width="4" stroke-miterlimit="10" stroke-linecap="round"/>
<path d="M260.249 290.034L259.163 344.675" stroke="#DCB641" stroke-width="4" stroke-miterlimit="10" stroke-linecap="round"/>
<path d="M264.796 294.94L263.851 342.433" stroke="#DCB641" stroke-width="4" stroke-miterlimit="10" stroke-linecap="round"/>
<path d="M269.3 302.034L268.58 338.214" stroke="#DCB641" stroke-width="4" stroke-miterlimit="10" stroke-linecap="round"/>
<path d="M218.241 300.582L217.52 336.843" stroke="#DCB641" stroke-width="4" stroke-miterlimit="10" stroke-linecap="round"/>
<path d="M223.023 293.672L222.072 341.458" stroke="#DCB641" stroke-width="4" stroke-miterlimit="10" stroke-linecap="round"/>
<path d="M227.765 288.804L226.666 344.029" stroke="#DCB641" stroke-width="4" stroke-miterlimit="10" stroke-linecap="round"/>
<path d="M232.474 285.542L231.279 345.58" stroke="#DCB641" stroke-width="4" stroke-miterlimit="10" stroke-linecap="round"/>
<path d="M237.159 283.445L235.905 346.549" stroke="#DCB641" stroke-width="4" stroke-miterlimit="10" stroke-linecap="round"/>
<path d="M241.825 282.371L240.542 346.932" stroke="#DCB641" stroke-width="4" stroke-miterlimit="10" stroke-linecap="round"/>
<path d="M220.129 297.433L271.349 333.493" stroke="#DCB641" stroke-width="4" stroke-miterlimit="10" stroke-linecap="round"/>
<path d="M222.877 293.881L272.791 329.019" stroke="#DCB641" stroke-width="4" stroke-miterlimit="10" stroke-linecap="round"/>
<path d="M225.968 290.617L273.362 323.985" stroke="#DCB641" stroke-width="4" stroke-miterlimit="10" stroke-linecap="round"/>
<path d="M229.389 287.488L273.638 318.64" stroke="#DCB641" stroke-width="4" stroke-miterlimit="10" stroke-linecap="round"/>
<path d="M233.57 284.944L272.978 312.686" stroke="#DCB641" stroke-width="4" stroke-miterlimit="10" stroke-linecap="round"/>
<path d="M238.458 282.895L270.902 305.788" stroke="#DCB641" stroke-width="4" stroke-miterlimit="10" stroke-linecap="round"/>
<path d="M245.245 282.185L266.522 297.165" stroke="#DCB641" stroke-width="4" stroke-miterlimit="10" stroke-linecap="round"/>
<path d="M215.074 332.294L235.773 346.524" stroke="#DCB641" stroke-width="4" stroke-miterlimit="10" stroke-linecap="round"/>
<path d="M213.414 325.637L243.965 347.145" stroke="#DCB641" stroke-width="4" stroke-miterlimit="10" stroke-linecap="round"/>
<path d="M213.1 319.928L251.2 346.751" stroke="#DCB641" stroke-width="4" stroke-miterlimit="10" stroke-linecap="round"/>
<path d="M213.563 314.766L257.256 345.526" stroke="#DCB641" stroke-width="4" stroke-miterlimit="10" stroke-linecap="round"/>
<path d="M214.54 309.964L262.205 343.521" stroke="#DCB641" stroke-width="4" stroke-miterlimit="10" stroke-linecap="round"/>
<path d="M215.99 305.496L266.139 340.803" stroke="#DCB641" stroke-width="4" stroke-miterlimit="10" stroke-linecap="round"/>
<path d="M217.862 301.326L269.157 337.44" stroke="#DCB641" stroke-width="4" stroke-miterlimit="10" stroke-linecap="round"/>
<path d="M237.229 283.021L232.831 276.446C232.707 276.261 232.645 276.041 232.653 275.819C232.662 275.596 232.74 275.381 232.877 275.206C233.015 275.03 233.204 274.903 233.419 274.841C233.633 274.78 233.861 274.787 234.071 274.863L237.369 276.052C237.962 276.266 238.602 276.309 239.218 276.178C239.834 276.046 240.401 275.745 240.854 275.308L242.104 274.104C242.426 273.794 242.807 273.551 243.224 273.389C243.64 273.227 244.085 273.149 244.533 273.161C244.98 273.172 245.42 273.273 245.828 273.456C246.236 273.639 246.604 273.902 246.909 274.228L247.759 275.136C248.217 275.625 248.81 275.967 249.464 276.118C250.117 276.268 250.8 276.221 251.427 275.982L253.792 275.079C254.074 274.971 254.384 274.955 254.676 275.035C254.968 275.115 255.227 275.285 255.416 275.522C255.604 275.759 255.712 276.05 255.724 276.352C255.735 276.654 255.65 276.953 255.481 277.203L251.086 283.723" stroke="#DCB641" stroke-width="4" stroke-miterlimit="10" stroke-linecap="round"/>
<path d="M338.937 328.395L329.644 347.217C327.749 351.055 324.818 354.286 321.181 356.545C317.545 358.805 313.348 360.002 309.066 360.003H243.767C238.177 360.002 232.717 358.319 228.099 355.172C223.48 352.024 219.918 347.56 217.876 342.36L201.489 300.391L269.998 326.699C272.918 327.82 276.019 328.395 279.147 328.395H338.937Z" fill="#DCB641"/>
<path d="M338.937 328.395L329.644 347.217C327.75 351.054 324.818 354.286 321.182 356.545C317.545 358.805 313.348 360.002 309.066 360.003H305.708C300.119 360.002 294.659 358.319 290.041 355.173C285.422 352.026 281.86 347.562 279.817 342.363L274.141 327.897C275.79 328.229 277.468 328.395 279.15 328.395H338.937Z" fill="#DCB641"/>
<path d="M203.555 299.486H197.085C196.913 299.484 196.746 299.542 196.612 299.652C196.479 299.761 196.389 299.913 196.357 300.083C196.326 300.252 196.355 300.427 196.441 300.576C196.526 300.726 196.661 300.84 196.822 300.9L270.137 329.053C273.275 330.258 276.609 330.875 279.97 330.875H343.577C343.708 330.875 343.835 330.829 343.936 330.745C344.037 330.661 344.105 330.545 344.128 330.416C344.152 330.287 344.13 330.154 344.065 330.04C344.001 329.926 343.898 329.838 343.776 329.791L336.354 326.937" stroke="#423C52" stroke-width="5" stroke-miterlimit="10"/>
<path d="M316.016 389.015C325.014 389.015 332.309 379.512 332.309 367.79C332.309 356.067 325.014 346.565 316.016 346.565C307.018 346.565 299.723 356.067 299.723 367.79C299.723 379.512 307.018 389.015 316.016 389.015Z" fill="#423C52"/>
<path d="M311.096 387.039C317.376 387.039 322.468 378.421 322.468 367.79C322.468 357.159 317.376 348.54 311.096 348.54C304.815 348.54 299.723 357.159 299.723 367.79C299.723 378.421 304.815 387.039 311.096 387.039Z" fill="#DCB641" stroke="#423C52" stroke-width="5" stroke-miterlimit="10" stroke-linecap="round"/>
<path d="M310.722 371.775C312.022 371.775 313.077 369.991 313.077 367.79C313.077 365.589 312.022 363.805 310.722 363.805C309.421 363.805 308.367 365.589 308.367 367.79C308.367 369.991 309.421 371.775 310.722 371.775Z" fill="#DCB641" stroke="#423C52" stroke-width="5" stroke-miterlimit="10" stroke-linecap="round"/>
<path d="M153.68 256.577H163.805C169.196 256.575 174.416 258.467 178.552 261.921C182.689 265.376 185.479 270.173 186.436 275.474L207.779 383.244C207.972 384.308 208.532 385.271 209.363 385.965C210.194 386.658 211.242 387.038 212.324 387.038V387.038C213.312 387.037 214.273 386.72 215.068 386.134C215.863 385.547 216.448 384.722 216.739 383.778L229.196 338.547C229.438 337.669 229.867 336.854 230.455 336.158C231.043 335.462 231.774 334.902 232.6 334.516C233.425 334.13 234.324 333.928 235.235 333.923C236.147 333.918 237.048 334.111 237.877 334.488L311.1 367.787" stroke="#423C52" stroke-width="5" stroke-miterlimit="10" stroke-linecap="round"/>
<path d="M190.782 217.325C189.871 217.231 184.723 217.02 178.689 223.057C172.873 228.877 171.972 233.539 171.847 234.622C157.319 210.573 157.382 176.875 154.38 167.322L159.404 167.332C165.829 167.346 172.159 171.202 173.688 177.431C177.634 193.514 184.387 207.092 190.782 217.325Z" fill="#DCB641"/>
<path d="M190.782 217.325C189.871 217.231 184.723 217.02 178.689 223.057C172.874 228.877 171.973 233.539 171.847 234.622C170.159 231.808 168.654 228.888 167.341 225.88C167.737 224.13 169.165 220.009 174.239 215.083C178.696 210.759 183.535 209.734 186.115 209.539C186.58 209.504 187.045 209.62 187.439 209.87C187.833 210.12 188.137 210.49 188.305 210.925L190.782 217.325Z" fill="#DCB641"/>
<path d="M225.45 261.955L212.601 262.315C212.042 262.331 211.491 262.177 211.021 261.872C210.552 261.568 210.186 261.128 209.973 260.611L209.097 258.467L200.686 258.337C188.567 252.967 179.661 246.252 171.824 234.86C171.824 234.86 172.034 229.718 178.686 223.057C185.338 216.397 190.771 217.342 190.771 217.342C199.677 232.101 208.291 240.458 212.076 243.732L218.625 243.804C219.967 243.819 221.272 244.242 222.368 245.017C223.463 245.791 224.296 246.881 224.757 248.14L228.276 257.754C228.446 258.218 228.503 258.715 228.444 259.205C228.384 259.695 228.21 260.164 227.934 260.574C227.658 260.984 227.289 261.322 226.858 261.562C226.426 261.802 225.943 261.937 225.45 261.955Z" fill="#A0505A"/>
<path d="M221.627 262.081C222.121 262.064 222.605 261.93 223.037 261.691C223.47 261.451 223.839 261.112 224.116 260.702C224.392 260.292 224.567 259.823 224.627 259.332C224.687 258.841 224.629 258.344 224.46 257.879L222.513 252.562" stroke="#423C52" stroke-width="5" stroke-miterlimit="10" stroke-linecap="round"/>
<path d="M217.381 262.163C217.876 262.146 218.359 262.012 218.791 261.772C219.224 261.532 219.593 261.193 219.869 260.783C220.146 260.373 220.321 259.903 220.38 259.412C220.44 258.922 220.382 258.424 220.212 257.96L218.267 252.643" stroke="#423C52" stroke-width="5" stroke-miterlimit="10" stroke-linecap="round"/>
<path d="M213.295 262.295C213.789 262.277 214.272 262.143 214.705 261.903C215.137 261.663 215.507 261.324 215.783 260.914C216.059 260.504 216.235 260.035 216.294 259.544C216.354 259.053 216.297 258.555 216.127 258.091L214.181 252.774" stroke="#423C52" stroke-width="5" stroke-miterlimit="10" stroke-linecap="round"/>
<path d="M200.683 258.338H209.093V257.048C209.092 255.991 208.672 254.977 207.924 254.23C207.176 253.483 206.162 253.063 205.104 253.063H204.333L201.356 250.988" stroke="#423C52" stroke-width="5" stroke-miterlimit="10" stroke-linecap="round"/>
<path d="M180.577 377.624C178.294 377.348 175.996 377.212 173.697 377.214C162.198 377.214 152.296 380.542 147.854 385.325C147.838 385.199 147.826 385.074 147.822 384.945L143.801 283.94L127.433 377.35C125.065 377.056 122.682 376.91 120.296 376.912C108.424 376.912 98.2579 380.459 94.0369 385.49C93.896 384.917 93.8628 384.323 93.9391 383.739L115.986 234.546L114.793 184.005C115.777 174.498 119.29 167.273 128.856 167.273H160.561C162.538 167.273 164.44 168.025 165.881 169.377C167.323 170.729 168.194 172.579 168.32 174.55L180.577 377.624Z" fill="#3F3D56"/>
<path d="M151.041 385.328C151.024 385.202 151.013 385.075 151.009 384.948L150.98 384.089" stroke="#423C52" stroke-width="5" stroke-miterlimit="10" stroke-linecap="round"/>
<path d="M150.901 381.592L147.077 268.032" stroke="#423C52" stroke-width="5" stroke-miterlimit="10" stroke-linecap="round" stroke-dasharray="17.12 17.12"/>
<path d="M147.035 266.784L146.993 265.544" stroke="#423C52" stroke-width="5" stroke-miterlimit="10" stroke-linecap="round"/>
<path d="M97.5876 383.742L97.7672 382.515" stroke="#423C52" stroke-width="5" stroke-miterlimit="10" stroke-linecap="round"/>
<path d="M98.1234 380.085L119.201 236.008L117.089 186.474" stroke="#423C52" stroke-width="5" stroke-miterlimit="10" stroke-linecap="round" stroke-dasharray="16.83 16.83"/>
<path d="M117.037 185.248L116.984 184.008" stroke="#423C52" stroke-width="5" stroke-miterlimit="10" stroke-linecap="round"/>
<path d="M127.425 377.369L147.931 259.442" stroke="#423C52" stroke-width="5" stroke-miterlimit="10" stroke-linecap="round"/>
<path d="M130.437 245.013C130.437 252.539 123.972 258.64 115.997 258.64" stroke="#423C52" stroke-width="5" stroke-miterlimit="10" stroke-linecap="round"/>
<path d="M140.383 253.388C132.345 247.276 121.28 238.214 115.923 229.743L115.494 214.49L140.383 253.388Z" fill="#423C52"/>
<path d="M158.524 259.359H146.512" stroke="#423C52" stroke-width="5" stroke-miterlimit="10" stroke-linecap="round"/>
<path d="M161.367 172.916V194.219H144.801L141.297 179.571C139.573 172.365 134.647 167.283 127.233 167.283H155.714C157.211 167.282 158.647 167.874 159.707 168.931C160.767 169.987 161.364 171.42 161.367 172.916Z" fill="#DCB641"/>
<path d="M186.612 389.127H152.171C151.113 389.127 150.09 388.743 149.295 388.044C148.5 387.346 147.987 386.383 147.851 385.334C152.295 380.551 162.197 377.223 173.694 377.223C175.993 377.22 178.29 377.357 180.573 377.633V377.655L187.992 385.519C189.412 386.781 188.514 389.127 186.612 389.127Z" fill="#423C52"/>
<path d="M133.586 389.127H98.6797C97.61 389.127 96.5712 388.769 95.729 388.11C94.8869 387.451 94.29 386.529 94.0338 385.491C98.2548 380.46 108.421 376.913 120.293 376.913C122.678 376.911 125.062 377.057 127.429 377.351V377.367L135.106 385.649C135.38 385.944 135.561 386.313 135.628 386.71C135.695 387.107 135.645 387.515 135.484 387.884C135.323 388.253 135.057 388.568 134.72 388.788C134.383 389.009 133.989 389.127 133.586 389.127Z" fill="#423C52"/>
<path d="M143.121 215.4C143.1 215.365 143.077 215.331 143.053 215.298C141.48 213.15 135.863 214.631 130.507 218.607C125.447 222.363 122.429 227 123.436 229.312C113.521 217.295 111.249 203.059 109.253 189.828C107.501 178.242 113.308 170.395 122.057 169.56C126.628 169.123 134.153 171.749 135.598 181.706C137.574 195.304 140.266 206.431 143.121 215.4Z" fill="#DCB641"/>
<path d="M143.052 215.298C141.479 213.15 135.863 214.631 130.506 218.607C125.149 222.583 122.083 227.547 123.655 229.696L119.317 223.606C117.789 221.22 120.461 214.932 126.41 211.058C132.36 207.184 140.222 205.823 141.171 208.823L143.052 215.298Z" fill="#DCB641"/>
<path d="M154.925 259.808C149.664 259.749 144.621 257.7 140.812 254.073C133.512 247.095 127.882 238.5 123.514 229.473C123.49 229.422 123.464 229.372 123.439 229.327C122.432 227.014 125.45 222.377 130.51 218.622C135.942 214.589 141.643 213.122 143.121 215.412V215.419C143.232 215.769 143.326 216.119 143.455 216.458C148.083 228.659 155.832 241.348 158.59 245.086L166.594 245.191C167.935 245.207 169.241 245.63 170.336 246.404C171.432 247.179 172.265 248.268 172.726 249.528L176.245 259.141C176.414 259.605 176.472 260.103 176.412 260.594C176.352 261.084 176.177 261.553 175.901 261.963C175.625 262.373 175.255 262.712 174.823 262.951C174.391 263.191 173.908 263.325 173.414 263.342L160.565 263.702C160.006 263.719 159.455 263.564 158.985 263.26C158.516 262.955 158.15 262.515 157.937 261.998L157.061 259.853L154.925 259.808Z" fill="#A0505A"/>
<path d="M169.593 263.45C170.087 263.433 170.57 263.298 171.003 263.059C171.435 262.819 171.805 262.48 172.081 262.07C172.357 261.66 172.533 261.19 172.592 260.699C172.652 260.209 172.595 259.711 172.425 259.246L170.479 253.93" stroke="#423C52" stroke-width="5" stroke-miterlimit="10" stroke-linecap="round"/>
<path d="M165.35 263.532C165.844 263.514 166.327 263.38 166.76 263.14C167.192 262.9 167.562 262.562 167.838 262.151C168.114 261.741 168.29 261.272 168.349 260.781C168.409 260.29 168.352 259.793 168.182 259.328L166.236 254.011" stroke="#423C52" stroke-width="5" stroke-miterlimit="10" stroke-linecap="round"/>
<path d="M161.262 263.662C161.756 263.644 162.239 263.51 162.672 263.271C163.104 263.031 163.474 262.692 163.75 262.282C164.026 261.872 164.202 261.403 164.261 260.912C164.321 260.422 164.264 259.924 164.094 259.46L162.148 254.143" stroke="#423C52" stroke-width="5" stroke-miterlimit="10" stroke-linecap="round"/>
<path d="M156.397 257.286L158.333 262.541" stroke="#423C52" stroke-width="5" stroke-miterlimit="10" stroke-linecap="round"/>
<path d="M154.38 245.088H158.59" stroke="#423C52" stroke-width="5" stroke-miterlimit="10" stroke-linecap="round"/>
<path d="M150.106 155.164C160.541 150.205 168.123 144.341 167.041 142.066C165.959 139.791 156.621 141.967 146.186 146.925C135.75 151.884 128.168 157.748 129.25 160.023C130.333 162.298 139.67 160.122 150.106 155.164Z" fill="#423C52"/>
<path d="M128.247 159.872C129.415 162.283 139.167 160.123 150.037 154.884C160.907 149.644 168.773 143.307 167.61 140.897C166.446 138.487 156.692 140.78 145.822 146.02C134.952 151.259 127.083 157.462 128.247 159.872Z" stroke="#423C52" stroke-width="3" stroke-miterlimit="10"/>
<path d="M141.452 148.227L141.388 146.32C141.313 144.097 142.829 142.089 145.114 141.377L148.645 140.286C149.533 140.007 150.476 139.949 151.391 140.116C152.307 140.282 153.168 140.668 153.902 141.241L154.994 142.117" stroke="#423C52" stroke-width="3" stroke-miterlimit="10" stroke-linecap="round"/>
<path d="M153.248 167.541V160.222L142.836 154.795L136.648 167.535C136.648 167.535 145.175 174.177 153.248 167.541Z" fill="#A0505A"/>
<path d="M153.248 167.541V160.228L142.836 154.8L141.728 157.081L153.248 167.541Z" fill="#423C52"/>
<path d="M153.899 144.637C156.02 143.815 161.288 143.761 159.091 147.184C156.858 150.66 151.13 149.184 148.14 148.29L147.14 147.987C146.604 148.361 146.234 148.929 146.108 149.571L145.721 151.529H143.093L143.056 151.237C142.883 149.818 143.824 148.757 145.168 148.261L153.899 144.637Z" fill="#DCB641"/>
<path d="M152.311 161.339H150.237C149.298 161.339 148.378 161.071 147.586 160.566C146.795 160.061 146.164 159.34 145.769 158.489L144.801 156.41H143.112C142.446 156.41 141.808 156.146 141.338 155.676C140.868 155.206 140.603 154.568 140.603 153.903C140.603 153.238 140.868 152.601 141.338 152.131C141.808 151.661 142.446 151.396 143.112 151.396H145.749L146.108 149.571C146.234 148.929 146.604 148.36 147.141 147.985C148.894 148.507 152.895 149.856 155.978 149.199C155.88 151.8 155.962 154.404 156.223 156.993C156.282 157.542 156.225 158.096 156.055 158.621C155.885 159.146 155.607 159.629 155.238 160.039C154.869 160.449 154.418 160.776 153.913 161C153.409 161.224 152.863 161.339 152.311 161.339Z" fill="#A0505A"/>
<path d="M156.005 151.375C156.005 151.375 154.239 150.916 153.332 152.437C152.734 153.441 153.177 157.174 153.177 157.174" stroke="#423C52" stroke-width="4" stroke-miterlimit="10" stroke-linecap="round"/>
<path d="M150.749 151.386C150.749 151.386 148.93 151.116 147.38 152.116" stroke="#423C52" stroke-width="4" stroke-miterlimit="10" stroke-linecap="round"/>
<path d="M154.97 154.398C155.174 154.385 155.318 154.057 155.292 153.667C155.266 153.278 155.08 152.972 154.876 152.986C154.673 153 154.529 153.327 154.555 153.717C154.581 154.107 154.767 154.412 154.97 154.398Z" fill="#423C52"/>
<path d="M149.727 154.543C149.943 154.528 150.096 154.18 150.068 153.764C150.041 153.348 149.843 153.023 149.626 153.038C149.41 153.052 149.257 153.401 149.285 153.816C149.312 154.232 149.51 154.557 149.727 154.543Z" fill="#423C52"/>
<path d="M144.698 154.433C144.704 154.177 144.658 153.922 144.564 153.684C144.471 153.446 144.33 153.229 144.151 153.046C143.972 152.863 143.758 152.717 143.522 152.618C143.286 152.518 143.032 152.467 142.776 152.467" stroke="#423C52" stroke-width="4" stroke-miterlimit="10" stroke-linecap="round"/>
<path d="M-82.3197 412.841H401.757C401.757 412.841 354.975 299.845 271.903 324.42C162.806 356.692 122.298 286.835 69.912 262.043C19.9923 238.416 -18.1247 269.708 -43.829 308.653C-64.7734 340.382 -82.3197 376.485 -82.3197 412.844V412.841Z" fill="#907B00"/>
<path d="M89.2729 412.844C89.2729 412.844 113.893 353.162 176.239 368.593C262.904 390.054 293.882 271.663 367.804 265.04C503.276 252.902 554.003 412.844 554.003 412.844H89.2729Z" fill="#B59B00"/>
<path d="M429.693 275.538C434.333 276.461 438.126 278.339 439.706 280.283C437.501 281.475 433.282 281.758 428.638 280.834C423.993 279.911 420.204 278.031 418.625 276.088C420.826 274.896 425.05 274.614 429.693 275.538Z" fill="#DCB641"/>
</g>
</g>
<defs>
<filter id="filter0_d" x="0" y="78.2729" width="447" height="363.697" filterUnits="userSpaceOnUse" color-interpolation-filters="sRGB">
<feFlood flood-opacity="0" result="BackgroundImageFix"/>
<feColorMatrix in="SourceAlpha" type="matrix" values="0 0 0 0 0 0 0 0 0 0 0 0 0 0 0 0 0 0 127 0"/>
<feOffset dx="11" dy="12"/>
<feGaussianBlur stdDeviation="8.5"/>
<feColorMatrix type="matrix" values="0 0 0 0 0 0 0 0 0 0 0 0 0 0 0 0 0 0 0.25 0"/>
<feBlend mode="normal" in2="BackgroundImageFix" result="effect1_dropShadow"/>
<feBlend mode="normal" in="SourceGraphic" in2="effect1_dropShadow" result="shape"/>
</filter>
</defs>
</svg>
