<svg width="560" height="605" viewBox="0 0 560 605" fill="none" xmlns="http://www.w3.org/2000/svg">
<g clip-path="url(#clip0)">
<path d="M392.457 264.917C426.111 264.917 453.393 237.652 453.393 204.02C453.393 170.387 426.111 143.122 392.457 143.122C358.803 143.122 331.521 170.387 331.521 204.02C331.521 237.652 358.803 264.917 392.457 264.917Z" fill="#DCB641"/>
<path d="M559.608 249.424C559.742 249.4 559.843 249.306 560 249.33C559.931 249.066 559.842 248.809 559.733 248.559C559.539 248.823 559.341 249.093 559.168 249.329L559.608 249.424Z" fill="white"/>
<path d="M99.1139 49.4295L109.151 41.407C101.354 40.5473 98.1499 44.7971 96.8387 48.1607C90.7472 45.6329 84.116 48.9458 84.116 48.9458L104.198 56.2316C103.185 53.5273 101.421 51.1677 99.1139 49.4295V49.4295Z" fill="#DCB641"/>
<path d="M401.415 8.13483L411.452 0.112352C403.654 -0.747346 400.451 3.50238 399.14 6.86607C393.048 4.33826 386.417 7.65107 386.417 7.65107L406.499 14.9369C405.486 12.2326 403.722 9.87306 401.415 8.13483V8.13483Z" fill="#DCB641"/>
<path d="M549.088 325.386C549.088 332.033 548.857 338.626 548.393 345.165C544.818 396.751 526.92 446.319 496.709 488.3C492.761 493.806 488.616 499.158 484.273 504.356C473.02 517.843 460.527 530.246 446.956 541.401L387.471 506.517L351.905 423.559C351.905 423.559 404.97 316.183 548.994 318.13C549.054 320.54 549.085 322.958 549.088 325.386Z" fill="#3F3D56"/>
<path d="M548.393 345.165C545.656 383.713 534.954 421.277 516.962 455.485C498.97 489.693 474.078 519.802 443.858 543.914L388.595 511.509L357.054 437.935C357.054 437.935 408.163 334.52 548.393 345.165Z" fill="#DCB641"/>
<path d="M496.709 488.3C492.761 493.806 488.616 499.158 484.273 504.356C455.173 539.297 417.991 566.623 375.944 583.969C367.43 587.477 358.716 590.57 349.802 593.249C285.434 610.356 217.24 606.029 155.553 580.924C94.546 553.712 45.2459 505.653 16.5077 445.38C12.6456 437.266 9.17254 428.946 6.08854 420.42C59.8753 381.043 165.861 324.657 281.373 379.447C313.326 394.603 341.857 408.418 366.967 420.892C430.684 452.456 473.09 475.211 496.709 488.3Z" fill="#3F3D56"/>
<path d="M484.273 504.356C454.192 540.384 415.528 568.273 371.839 585.458C328.149 602.643 280.836 608.572 234.253 602.699C187.67 596.825 143.313 579.339 105.263 551.848C67.2132 524.357 36.692 487.745 16.5077 445.38C61.4287 409.879 165.037 346.082 278.738 400.007C307.979 413.876 334.084 426.519 357.054 437.935C424.015 471.103 465.263 493.643 484.273 504.356Z" fill="#DCB641"/>
<path d="M404.988 569.98C395.581 575.191 385.884 579.862 375.944 583.969C342.119 597.899 305.883 605.045 269.298 605C226.007 604.983 183.31 594.936 144.559 575.649C105.808 556.362 72.0596 528.359 45.963 493.84C112.787 486.799 297.5 477.304 404.988 569.98Z" fill="#3F3D56"/>
<path d="M375.944 583.969C323.494 605.522 265.732 610.656 210.299 598.692C154.866 586.728 104.372 558.229 65.4968 516.964C89.8025 513.396 280.627 488.892 375.944 583.969Z" fill="#DCB641"/>
<path d="M87.7345 330.806C121.532 324.717 138.85 263.912 126.417 194.996C113.984 126.08 76.5068 75.1496 42.7098 81.2393C8.91282 87.3289 -8.40596 148.133 4.02727 217.049C16.4605 285.965 53.9375 336.896 87.7345 330.806Z" fill="#3F3D56"/>
<path d="M96.4202 411.291C94.4165 259.918 43.7371 117.863 43.2256 116.447L38.6037 118.113C39.1127 119.522 89.5141 260.833 91.5073 411.358L96.4202 411.291Z" fill="#DCB641"/>
<path d="M6.50492 188.898L4.99277 193.571L65.6661 213.18L67.1782 208.507L6.50492 188.898Z" fill="#DCB641"/>
<path d="M120.637 183.634L70.6458 223.201L73.6968 227.051L123.688 187.484L120.637 183.634Z" fill="#DCB641"/>
<path d="M250.243 308.983C287.404 308.983 317.529 247.555 317.529 171.779C317.529 96.0027 287.404 34.5742 250.243 34.5742C213.082 34.5742 182.957 96.0027 182.957 171.779C182.957 247.555 213.082 308.983 250.243 308.983Z" fill="#3F3D56"/>
<path d="M244.03 396.36C270.978 234.774 244.301 73.7723 244.028 72.1662L238.786 73.0536C239.058 74.6519 265.582 234.808 238.785 395.488L244.03 396.36Z" fill="#DCB641"/>
<path d="M191.004 142.275L188.496 146.962L249.341 179.486L251.849 174.8L191.004 142.275Z" fill="#DCB641"/>
<path d="M313.557 158.568L252.719 191.111L255.228 195.796L316.066 163.253L313.557 158.568Z" fill="#DCB641"/>
<path d="M343.619 114.597L353.656 106.575C345.859 105.715 342.655 109.965 341.344 113.328C335.253 110.801 328.621 114.113 328.621 114.113L348.703 121.399C347.69 118.695 345.927 116.335 343.619 114.597Z" fill="#DCB641"/>
</g>
<defs>
<clipPath id="clip0">
<rect width="560" height="605" fill="white"/>
</clipPath>
</defs>
</svg>
